PathFileType	4	(X/Y/Z)	A:\Common\BMMB\PROJECTS\STRATO\DataSTRATO\DataSTRATO\0021~016 ID\0021~aa~ID 016\Standing_STRATO_ID_16.trc
DataRate	CameraRate	NumFrames	NumMarkers	Units	OrigDataRate	OrigDataStartFrame	OrigNumFrames
250.00	250.00	11	22	mm	250.00	1	3281
Frame#	Time	r.should			l.should			c7			r.asis			l.asis			sacrum			r.bar1			l.bar1			r.knee1			l.knee1			r.bar2			r.mall			l.bar2			l.mall			r.met			r.heel			l.heel			l.met			r.mallm			l.mallm			r.kneem			l.kneem			
		X1	Y1	Z1	X2	Y2	Z2	X3	Y3	Z3	X4	Y4	Z4	X5	Y5	Z5	X6	Y6	Z6	X7	Y7	Z7	X8	Y8	Z8	X9	Y9	Z9	X10	Y10	Z10	X11	Y11	Z11	X12	Y12	Z12	X13	Y13	Z13	X14	Y14	Z14	X15	Y15	Z15	X16	Y16	Z16	X17	Y17	Z17	X18	Y18	Z18	X19	Y19	Z19	X20	Y20	Z20	X21	Y21	Z21	X22	Y22	Z22	

0	0.000000	337.727934	1332.128763	303.785354	40.333696	1349.056363	298.600674	198.161945	1389.232874	386.046082	295.734137	890.333891	152.079985	55.294283	878.217936	171.586812	191.880822	952.650130	384.944171	391.222805	815.656126	239.043593	-11.834625	791.923583	269.167811	351.163387	465.467840	281.138301	12.987064	467.970282	355.135173	337.403983	414.125770	276.435643	328.353286	70.422538	304.940820	10.143751	423.878163	364.753276	48.769128	52.472014	338.387698	295.205563	36.713026	163.591400	286.515534	37.026312	362.722605	95.968984	31.893104	401.348680	75.714067	36.214497	196.580052	243.651018	78.537665	299.299240	129.563287	79.494186	330.027997	207.617119	440.544963	323.273718	160.226688	445.506841	362.786859	
1	0.004000	337.731868	1332.142472	303.800136	40.363185	1349.070311	298.568875	198.179424	1389.234781	386.069626	295.756400	890.357494	152.087465	55.302508	878.226399	171.533227	191.863447	952.640474	384.938627	391.225636	815.656304	239.050582	-11.808876	791.901350	269.165516	351.146460	465.463996	281.130850	12.999947	467.995435	355.092198	337.424874	414.128691	276.417613	328.341872	70.401743	304.973722	10.092989	423.896015	364.774615	48.771929	52.480154	338.360518	295.197338	36.724612	163.620442	286.523104	37.020840	362.742633	95.962502	31.905282	401.370585	75.667977	36.125924	196.561277	243.619204	78.550711	299.325526	129.551202	79.490468	330.043256	207.619637	440.538228	323.282361	160.205856	445.514828	362.768352	
2	0.008000	337.743402	1332.139015	303.814352	40.352009	1349.061251	298.587799	198.197365	1389.240980	386.082351	295.761704	890.362561	152.105451	55.297315	878.209591	171.561867	191.857427	952.655554	384.934902	391.212195	815.647483	239.095435	-11.804165	791.914940	269.117355	351.149350	465.461791	281.122744	13.008791	467.987329	355.050564	337.429464	414.124876	276.412785	328.346819	70.383564	304.980367	10.101520	423.908710	364.730597	48.793029	52.498490	338.321298	295.198888	36.725681	163.645476	286.519527	37.032284	362.763464	95.958143	31.899132	401.395172	75.666048	36.066912	196.556196	243.600726	78.554593	299.322248	129.553750	79.475343	330.049902	207.609743	440.531790	323.271751	160.194993	445.507377	362.779021	
3	0.012000	337.761343	1332.138062	303.824663	40.368397	1349.071264	298.595935	198.206604	1389.235973	386.083245	295.759171	890.321672	152.131408	55.303905	878.204465	171.544388	191.856414	952.672124	384.956211	391.204864	815.650940	239.097327	-11.810575	791.904390	269.119501	351.160347	465.463907	281.130403	13.012639	467.984825	355.042338	337.441534	414.130211	276.409715	328.335345	70.387930	304.971099	10.093628	423.900962	364.705622	48.787288	52.491542	338.344514	295.193046	36.731564	163.626984	286.512673	37.021719	362.759024	95.957354	31.904787	401.413172	75.646162	36.065392	196.560249	243.599713	78.552604	299.312472	129.565388	79.472095	330.072641	207.610220	440.529644	323.276788	160.189167	445.497870	362.772852	
4	0.016000	337.777495	1332.135320	303.824544	40.404711	1349.072456	298.589587	198.215201	1389.242172	386.097878	295.790315	890.303493	152.126133	55.323821	878.208280	171.517715	191.862553	952.660620	384.948641	391.213179	815.646291	239.093065	-11.813994	791.903853	269.122958	351.163983	465.463847	281.142414	13.001058	467.985690	355.063975	337.443948	414.132059	276.430070	328.333378	70.390485	304.973900	10.148590	423.900872	364.662111	48.781622	52.495684	338.343799	295.170695	36.713731	163.613141	286.506802	37.017509	362.753808	95.961228	31.907052	401.393831	75.612105	36.071911	196.581706	243.600592	78.564428	299.304366	129.555702	79.468116	330.052525	207.620904	440.539062	323.273838	160.202667	445.493639	362.764716	
5	0.020000	337.790072	1332.125664	303.815395	40.420458	1349.085212	298.582911	198.242188	1389.233828	386.118859	295.823783	890.317082	152.090311	55.336624	878.190935	171.528757	191.877872	952.648103	384.927511	391.229272	815.649390	239.092633	-11.802266	791.913331	269.102871	351.163954	465.462804	281.139433	13.015676	467.979014	355.043977	337.439924	414.127707	276.448071	328.337193	70.387967	305.000097	10.218220	423.891604	364.593446	48.804436	52.482985	338.359058	295.180023	36.701128	163.604900	286.504686	37.013941	362.733960	95.971562	31.910118	401.382923	75.643181	36.067773	196.555808	243.605822	78.557268	299.308300	129.538849	79.471335	330.043107	207.625464	440.539479	323.276192	160.215259	445.503056	362.760425	
6	0.024000	337.807447	1332.106352	303.822190	40.437605	1349.080920	298.546374	198.250145	1389.223814	386.109680	295.830965	890.321672	152.080297	55.348482	878.180146	171.543643	191.877440	952.647388	384.916902	391.233146	815.654397	239.093632	-11.816545	791.913152	269.117534	351.172537	465.466917	281.140029	13.018743	467.981398	355.022848	337.440282	414.127052	276.461244	328.340948	70.384830	304.998964	10.122810	423.869729	364.693373	48.818205	52.458428	338.410199	295.190275	36.705572	163.592398	286.498308	36.995437	362.732172	95.965616	31.900153	401.389778	75.688072	36.060866	196.521476	243.617594	78.541696	299.315393	129.539728	79.463094	330.050796	207.639903	440.518618	323.286712	160.218209	445.508152	362.745345	
7	0.028000	337.831765	1332.098007	303.822339	40.457953	1349.080682	298.508704	198.263332	1389.227271	386.091799	295.844495	890.334249	152.043551	55.361874	878.174424	171.553925	191.875309	952.649891	384.910017	391.235501	815.653741	239.092678	-11.834574	791.888714	269.155890	351.176202	465.461999	281.151474	13.022178	467.978090	354.997158	337.443978	414.136529	276.442260	328.343123	70.390724	304.975122	10.114002	423.874229	364.708275	48.829347	52.465629	338.392675	295.186609	36.710445	163.591683	286.495298	36.974229	362.714350	95.963396	31.898316	401.395023	75.686768	36.059458	196.520165	243.630245	78.532442	299.333215	129.552856	79.452336	330.063730	207.645103	440.515578	323.292643	160.234228	445.511013	362.746418	
8	0.032000	337.853223	1332.088470	303.826511	40.479220	1349.073410	298.519462	198.275119	1389.214635	386.078596	295.841724	890.309095	152.067780	55.379678	878.173411	171.561509	191.877946	952.655137	384.906411	391.245157	815.639615	239.099324	-11.816143	791.897655	269.144893	351.190448	465.449721	281.157345	13.038802	467.975020	355.003804	337.452650	414.126486	276.439041	328.351378	70.387512	304.979056	10.094664	423.882306	364.720613	48.847940	52.514739	338.338226	295.187324	36.691662	163.609341	286.497235	36.968507	362.709612	95.961913	31.906549	401.390612	75.686172	36.076620	196.520150	243.631408	78.531772	299.355954	129.550159	79.446562	330.040157	207.641259	440.513641	323.301136	160.236984	445.499837	362.770170	
9	0.036000	337.876916	1332.080841	303.847164	40.504616	1349.066615	298.531055	198.291957	1389.200568	386.070192	295.857787	890.296161	152.071327	55.385031	878.171742	171.564326	191.895396	952.636480	384.891182	391.264200	815.633535	239.099443	-11.796115	791.898608	269.118637	351.202428	465.450644	281.158805	13.035509	467.982590	355.006635	337.465495	414.124101	276.437402	328.366756	70.374116	304.976702	10.099290	423.877925	364.729166	48.867211	52.485839	338.351250	295.207679	36.701422	163.625330	286.517143	36.959529	362.707794	95.965028	31.898960	401.382685	75.698182	36.128674	196.579754	243.632615	78.539342	299.373120	129.555285	79.468623	330.037922	207.653403	440.515399	323.290586	160.235479	445.497096	362.768471	
10	0.040000	337.896734	1332.078815	303.874016	40.522739	1349.054933	298.542202	198.322535	1389.199376	386.076361	295.885146	890.282452	152.069390	55.394948	878.162146	171.590060	191.895440	952.631116	384.862840	391.279638	815.625548	239.119396	-11.778861	791.905761	269.124568	351.209402	465.451658	281.153619	13.053779	468.002975	354.990184	337.481052	414.117873	276.435524	328.368425	70.367604	304.984331	10.164434	423.892945	364.664286	48.870113	52.461181	338.410467	295.199543	36.704741	163.607553	286.507547	36.958799	362.712115	95.973805	31.886157	401.382685	75.706688	36.078352	196.562096	243.640795	78.548677	299.381346	129.568979	79.478674	330.063045	207.668513	440.516323	323.286563	160.242602	445.506781	362.760723	
